<svg width="1619" height="1619" viewBox="0 0 1619 1619" fill="none" xmlns="http://www.w3.org/2000/svg">
<path d="M353.588 962.219C365.234 1021.7 402.533 1107.24 402.533 1107.24C402.533 1107.24 367.024 1046.61 348.149 1006.63C336.024 980.951 327.683 966.913 320.051 939.559C313.967 917.755 312.69 904.943 310.08 882.457C303.222 823.349 315.519 730.184 315.519 730.184C315.519 730.184 322.311 686.049 330.021 658.58C339.862 623.517 347.057 604.031 363.557 571.567C387.813 523.844 406.116 498.574 443.319 460.081C482.481 419.562 509.018 400.161 558.43 373.068C619.282 339.703 658.524 328.044 727.017 316.873C796.189 305.591 837.496 304.506 906.482 316.873C960.359 326.531 990.893 335.64 1039.72 360.379C1083.95 382.791 1106.91 399.932 1143.95 432.89C1184.83 469.253 1206.69 492.426 1235.5 538.937C1256.51 572.859 1265.65 593.786 1279.01 631.388C1294.09 673.866 1299.4 699.09 1305.29 743.78C1313.11 803.087 1315.97 838.1 1305.29 896.959C1298.83 932.553 1292.05 952.042 1279.01 985.785C1265.08 1021.81 1255.88 1041.8 1235.5 1074.61C1214.47 1108.47 1200.09 1126.07 1172.96 1155.28C1150.29 1179.69 1136.87 1193.03 1110.42 1213.29C1066.03 1247.28 1036.91 1263.79 984.432 1283.08C949.056 1296.08 928.249 1301.34 891.075 1307.55C859.53 1312.82 827.628 1311.87 811.313 1309.36C784.867 1305.3 764.267 1299.74 743.334 1283.08C721.917 1266.03 710.254 1255.84 695.933 1232.51C679.977 1206.52 676.143 1186.36 670.554 1156.38C665.3 1128.19 665.914 1109.23 674.447 1081.86C681.06 1060.65 689.329 1046.88 701.64 1028.38C717.724 1004.22 728.952 995.21 748.771 974.002C773.989 947.014 791.212 934.725 821.281 913.274C855.381 888.947 877.495 879.901 913.733 858.891C959.539 832.332 990.205 824.88 1031.56 791.818C1060.89 768.375 1078.76 755.106 1099.54 723.839C1117.53 696.782 1126.31 679.479 1133.08 647.703C1140.01 615.161 1142.6 594.383 1133.08 562.503C1128.27 546.419 1124.68 537.211 1114.95 523.528C1105.23 509.858 1084.13 493.618 1084.13 493.618L906.482 554.345C906.482 554.345 882.433 526.818 862.975 514.464C845.71 503.503 834.714 498.821 814.937 493.618C781.732 484.881 754.505 484.131 720.674 489.992C686.586 495.898 670.285 501.473 643.63 523.528C625.522 538.512 613.855 548.974 607.375 571.567C602.397 588.919 602.409 600.436 607.375 617.792C614.968 644.332 638.983 653.942 653.6 671.269C680.524 703.184 682.939 713.012 691.668 743.78C703.262 784.643 694.459 852.423 689.857 869.767C685.256 887.112 687.138 885.176 678.98 900.584C669.403 918.676 644.06 935.224 614.626 944.997C587.079 954.144 568.154 953.167 540.302 944.997C508.831 935.766 492.086 922.423 471.417 896.959C449.09 869.451 440.228 849.684 430.631 815.384C420.118 777.812 424.286 715.682 424.286 715.682C424.286 715.682 385.401 745.358 370.808 769.159C355.308 794.438 345.008 809.584 340.897 838.95C334.554 884.27 344.458 915.588 353.588 962.219Z" fill="#00ADB5"/>
<path d="M353.588 962.219C365.234 1021.7 402.533 1107.24 402.533 1107.24C402.533 1107.24 367.024 1046.61 348.149 1006.63C336.024 980.951 327.683 966.913 320.051 939.559C313.967 917.755 312.69 904.943 310.08 882.457C303.222 823.349 315.519 730.184 315.519 730.184C315.519 730.184 322.311 686.049 330.021 658.58C339.862 623.517 347.057 604.031 363.557 571.567C387.813 523.844 406.116 498.574 443.319 460.081C482.481 419.562 509.018 400.161 558.43 373.068C619.282 339.703 658.524 328.044 727.017 316.873C796.189 305.591 837.496 304.506 906.482 316.873C960.359 326.531 990.893 335.64 1039.72 360.379C1083.95 382.791 1106.91 399.932 1143.95 432.89C1184.83 469.253 1206.69 492.426 1235.5 538.937C1256.51 572.859 1265.65 593.786 1279.01 631.388C1294.09 673.866 1299.4 699.09 1305.29 743.78C1313.11 803.087 1315.97 838.1 1305.29 896.959C1298.83 932.553 1292.05 952.042 1279.01 985.785C1265.08 1021.81 1255.88 1041.8 1235.5 1074.61C1214.47 1108.47 1200.09 1126.07 1172.96 1155.28C1150.29 1179.69 1136.87 1193.03 1110.42 1213.29C1066.03 1247.28 1036.91 1263.79 984.432 1283.08C949.056 1296.08 928.249 1301.34 891.075 1307.55C859.53 1312.82 827.628 1311.87 811.313 1309.36C784.867 1305.3 764.267 1299.74 743.334 1283.08C721.917 1266.03 710.254 1255.84 695.933 1232.51C679.977 1206.52 676.143 1186.36 670.554 1156.38C665.3 1128.19 665.914 1109.23 674.447 1081.86C681.06 1060.65 689.329 1046.88 701.64 1028.38C717.724 1004.22 728.952 995.21 748.771 974.002C773.989 947.014 791.212 934.725 821.281 913.274C855.381 888.947 877.495 879.901 913.733 858.891C959.539 832.332 990.205 824.88 1031.56 791.818C1060.89 768.375 1078.76 755.106 1099.54 723.839C1117.53 696.782 1126.31 679.479 1133.08 647.703C1140.01 615.161 1142.6 594.383 1133.08 562.503C1128.27 546.419 1124.68 537.211 1114.95 523.528C1105.23 509.858 1084.13 493.618 1084.13 493.618L906.482 554.345C906.482 554.345 882.433 526.818 862.975 514.464C845.71 503.503 834.714 498.821 814.937 493.618C781.732 484.881 754.505 484.131 720.674 489.992C686.586 495.898 670.285 501.473 643.63 523.528C625.522 538.512 613.855 548.974 607.375 571.567C602.397 588.919 602.409 600.436 607.375 617.792C614.968 644.332 638.983 653.942 653.6 671.269C680.524 703.184 682.939 713.012 691.668 743.78C703.262 784.643 694.459 852.423 689.857 869.767C685.256 887.112 687.138 885.176 678.98 900.584C669.403 918.676 644.06 935.224 614.626 944.997C587.079 954.144 568.154 953.167 540.302 944.997C508.831 935.766 492.086 922.423 471.417 896.959C449.09 869.451 440.228 849.684 430.631 815.384C420.118 777.812 424.286 715.682 424.286 715.682C424.286 715.682 385.401 745.358 370.808 769.159C355.308 794.438 345.008 809.584 340.897 838.95C334.554 884.27 344.458 915.588 353.588 962.219Z" fill="#00ADB5"/>
<circle cx="823.096" cy="608.729" r="42.6001" fill="#00ADB5"/>
</svg>
